<svg width="48" height="48" viewBox="0 0 48 48" fill="none" xmlns="http://www.w3.org/2000/svg">
<path d="M25 24C25 21.4581 24.7849 18.9701 24.373 16.5557C24.2494 15.8312 23.4028 15.5132 22.8175 15.9577L19.5363 18.4498C19.1884 18.7141 18.7635 18.8571 18.3266 18.8571H15C13.8954 18.8571 13 19.7526 13 20.8571V27.1429C13 28.2474 13.8954 29.1429 15 29.1429H18.3266C18.7635 29.1429 19.1884 29.2859 19.5363 29.5502L22.8175 32.0423C23.4027 32.4868 24.2494 32.1688 24.373 31.4443C24.7849 29.0299 25 26.5419 25 24Z" fill="white" stroke="white" stroke-linejoin="round"/>
<path d="M29 21L35 27M29 27L35 21" stroke="white" stroke-width="1.5" stroke-linecap="round" stroke-linejoin="round"/>
</svg>
