<svg width="48" height="48" viewBox="0 0 48 48" fill="none" xmlns="http://www.w3.org/2000/svg">
<path d="M26.2857 15.1111C26.2857 14.4975 26.7974 14 27.4286 14H30.8571C31.4883 14 32 14.4975 32 15.1111V32.8889C32 33.5025 31.4883 34 30.8571 34H27.4286C26.7974 34 26.2857 33.5025 26.2857 32.8889V15.1111Z" fill="white"/>
<path d="M16 15.1111C16 14.4975 16.5117 14 17.1429 14H20.5714C21.2026 14 21.7143 14.4975 21.7143 15.1111V32.8889C21.7143 33.5025 21.2026 34 20.5714 34H17.1429C16.5117 34 16 33.5025 16 32.8889V15.1111Z" fill="white"/>
</svg>
